{
    "asset" : {
        "generator" : "Khronos glTF Blender I/O v1.5.17",
        "version" : "2.0"
    },
    "scene" : 0,
    "scenes" : [
        {
            "name" : "Scene",
            "nodes" : [
                0
            ]
        }
    ],
    "nodes" : [
        {
            "mesh" : 0,
            "name" : "Text.008",
            "rotation" : [
                0.5,
                0.5,
                -0.5,
                0.4999999701976776
            ],
            "translation" : [
                0.02608215995132923,
                0.46094152331352234,
                -4.4606170654296875
            ]
        }
    ],
    "materials" : [
        {
            "doubleSided" : true,
            "name" : "Material.002",
            "pbrMetallicRoughness" : {
                "roughnessFactor" : 0.1818181872367859
            }
        }
    ],
    "meshes" : [
        {
            "name" : "Text.008",
            "primitives" : [
                {
                    "attributes" : {
                        "POSITION" : 0,
                        "NORMAL" : 1
                    },
                    "indices" : 2,
                    "material" : 0
                }
            ]
        }
    ],
    "accessors" : [
        {
            "bufferView" : 0,
            "componentType" : 5126,
            "count" : 14063,
            "max" : [
                -4.215026378631592,
                0.09811147302389145,
                0.7640420198440552
            ],
            "min" : [
                -4.694913864135742,
                -0.09918618947267532,
                0.1734524816274643
            ],
            "type" : "VEC3"
        },
        {
            "bufferView" : 1,
            "componentType" : 5126,
            "count" : 14063,
            "type" : "VEC3"
        },
        {
            "bufferView" : 2,
            "componentType" : 5123,
            "count" : 84390,
            "type" : "SCALAR"
        }
    ],
    "bufferViews" : [
        {
            "buffer" : 0,
            "byteLength" : 168756,
            "byteOffset" : 0
        },
        {
            "buffer" : 0,
            "byteLength" : 168756,
            "byteOffset" : 168756
        },
        {
            "buffer" : 0,
            "byteLength" : 168780,
            "byteOffset" : 337512
        }
    ],
    "buffers" : [
        {
            "byteLength" : 506292,
            "uri" : "data:application/octet-stream;base64,"
        }
    ]
}
