{
    "asset" : {
        "generator" : "Khronos glTF Blender I/O v1.5.17",
        "version" : "2.0"
    },
    "scene" : 0,
    "scenes" : [
        {
            "name" : "Scene",
            "nodes" : [
                0
            ]
        }
    ],
    "nodes" : [
        {
            "mesh" : 0,
            "name" : "Text",
            "rotation" : [
                0.5,
                0.5,
                -0.5,
                0.4999999701976776
            ],
            "translation" : [
                0.026082172989845276,
                0.0007908623665571213,
                0.0023993700742721558
            ]
        }
    ],
    "materials" : [
        {
            "doubleSided" : true,
            "name" : "Material.002",
            "pbrMetallicRoughness" : {
                "roughnessFactor" : 0.1818181872367859
            }
        }
    ],
    "meshes" : [
        {
            "name" : "Text",
            "primitives" : [
                {
                    "attributes" : {
                        "POSITION" : 0,
                        "NORMAL" : 1
                    },
                    "indices" : 2,
                    "material" : 0
                }
            ]
        }
    ],
    "accessors" : [
        {
            "bufferView" : 0,
            "componentType" : 5126,
            "count" : 5086,
            "max" : [
                0.13817095756530762,
                0.0909995287656784,
                0.3197711408138275
            ],
            "min" : [
                -0.1693088412284851,
                -0.08986292034387589,
                -0.2521343231201172
            ],
            "type" : "VEC3"
        },
        {
            "bufferView" : 1,
            "componentType" : 5126,
            "count" : 5086,
            "type" : "VEC3"
        },
        {
            "bufferView" : 2,
            "componentType" : 5123,
            "count" : 30504,
            "type" : "SCALAR"
        }
    ],
    "bufferViews" : [
        {
            "buffer" : 0,
            "byteLength" : 61032,
            "byteOffset" : 0
        },
        {
            "buffer" : 0,
            "byteLength" : 61032,
            "byteOffset" : 61032
        },
        {
            "buffer" : 0,
            "byteLength" : 61008,
            "byteOffset" : 122064
        }
    ],
    "buffers" : [
        {
            "byteLength" : 183072,
            "uri" : "data:application/octet-stream;base64,"
        }
    ]
}
