{
    "asset" : {
        "generator" : "Khronos glTF Blender I/O v1.5.17",
        "version" : "2.0"
    },
    "scene" : 0,
    "scenes" : [
        {
            "name" : "Scene",
            "nodes" : [
                0
            ]
        }
    ],
    "nodes" : [
        {
            "mesh" : 0,
            "name" : "Text.002",
            "rotation" : [
                0.5,
                0.5,
                -0.5,
                0.4999999701976776
            ],
            "translation" : [
                0.02608215995132923,
                0.434902548789978,
                -1.4896643161773682
            ]
        }
    ],
    "materials" : [
        {
            "doubleSided" : true,
            "name" : "Material.002",
            "pbrMetallicRoughness" : {
                "roughnessFactor" : 0.1818181872367859
            }
        }
    ],
    "meshes" : [
        {
            "name" : "Text.002",
            "primitives" : [
                {
                    "attributes" : {
                        "POSITION" : 0,
                        "NORMAL" : 1
                    },
                    "indices" : 2,
                    "material" : 0
                }
            ]
        }
    ],
    "accessors" : [
        {
            "bufferView" : 0,
            "componentType" : 5126,
            "count" : 12500,
            "max" : [
                -1.2695703506469727,
                0.0884651392698288,
                0.7158077359199524
            ],
            "min" : [
                -1.7440431118011475,
                -0.08857233822345734,
                0.13409802317619324
            ],
            "type" : "VEC3"
        },
        {
            "bufferView" : 1,
            "componentType" : 5126,
            "count" : 12500,
            "type" : "VEC3"
        },
        {
            "bufferView" : 2,
            "componentType" : 5123,
            "count" : 74988,
            "type" : "SCALAR"
        }
    ],
    "bufferViews" : [
        {
            "buffer" : 0,
            "byteLength" : 150000,
            "byteOffset" : 0
        },
        {
            "buffer" : 0,
            "byteLength" : 150000,
            "byteOffset" : 150000
        },
        {
            "buffer" : 0,
            "byteLength" : 149976,
            "byteOffset" : 300000
        }
    ],
    "buffers" : [
        {
            "byteLength" : 449976,
            "uri" : "data:application/octet-stream;base64,"
        }
    ]
}
