<?xml version="1.0" encoding="utf-8"?>
<svg viewBox="20 20 912.114 98.607" xmlns="http://www.w3.org/2000/svg">
  <path d="M 665.463 77.612 L 651.075 77.612 C 650.568 77.612 650.204 77.04 650.204 76.494 C 650.204 76.3 657.86 51.617 657.86 51.617 C 658.133 50.694 658.159 50.667 658.263 50.667 L 658.276 50.667 C 658.392 50.667 658.406 50.694 658.678 51.617 C 658.678 51.617 666.334 76.3 666.334 76.494 C 666.334 77.04 665.944 77.612 665.464 77.612 M 684.869 21.137 C 684.722 20.638 684.283 20.281 683.764 20.24 L 630.928 20.24 C 630.413 20.281 629.976 20.632 629.823 21.124 C 629.823 21.124 600.617 117.541 600.617 117.724 C 600.617 118.204 600.994 118.594 601.488 118.594 L 636.413 118.594 C 636.693 118.478 636.898 118.229 636.959 117.931 L 641.027 104.934 C 641.154 104.605 641.467 104.385 641.82 104.374 L 674.042 104.349 C 674.392 104.375 674.705 104.622 674.835 104.934 L 678.994 117.931 C 679.059 118.231 679.267 118.503 679.54 118.607 L 713.906 118.594 C 714.386 118.594 714.79 118.23 714.79 117.749 C 714.79 117.58 684.869 21.137 684.869 21.137 M 784.432 60.503 L 762.972 60.516 C 762.972 60.516 762.401 60.347 762.401 59.697 L 762.388 48.87 C 762.388 48.22 762.96 48.051 762.96 48.051 L 782.638 48.051 C 784.926 48.051 789.553 49.195 789.553 54.485 C 789.553 59.775 784.432 60.503 784.432 60.503 M 883.489 52.12 L 932.114 52.12 L 932.114 20.236 L 869.594 20.236 C 863.746 20.236 855.518 23.252 850.8 26.748 C 846.082 30.244 839.258 38.212 839.258 49.195 C 839.258 60.178 845.926 68.718 845.926 68.718 C 849.344 72.955 857.949 81.781 857.949 81.781 C 858.144 81.989 858.261 82.261 858.261 82.574 C 858.261 83.236 857.728 83.769 857.065 83.769 L 812.741 83.769 C 806.879 83.743 806.476 81.417 806.476 81.079 C 806.476 80.481 807.204 80.104 807.204 80.104 C 809.401 79.051 813.884 75.554 813.884 75.554 C 823.399 68.146 824.544 57.982 824.544 52.536 C 824.544 47.076 823.724 37.419 813.963 28.958 C 804.202 20.496 791.841 20.262 791.841 20.262 L 723.121 20.262 L 723.121 118.032 C 723.121 118.343 723.407 118.59 723.719 118.59 L 761.972 118.59 L 761.972 91.165 C 761.972 90.685 762.712 91.165 762.712 91.165 L 782.638 111.182 C 789.722 118.343 801.433 118.59 801.433 118.59 L 872.935 118.577 C 885.79 118.577 892.939 111.585 894.901 109.635 C 896.851 107.672 903.363 100.355 903.363 88.228 C 903.363 76.114 897.826 69.914 895.46 67.068 C 893.355 64.52 884.958 55.629 883.203 53.783 C 882.988 53.608 882.864 53.346 882.865 53.069 C 882.865 52.639 883.112 52.237 883.489 52.119 M 587.63 118.588 C 587.89 118.588 588.072 118.406 588.15 118.12 C 588.15 118.12 617.746 20.91 617.746 20.818 C 617.746 20.558 617.59 20.273 617.343 20.247 L 580.858 20.247 C 580.676 20.247 580.559 20.39 580.52 20.585 C 580.52 20.598 572.968 45.865 572.968 45.878 C 572.916 46.086 572.812 46.216 572.63 46.216 C 572.448 46.216 572.292 46.034 572.266 45.878 L 564.364 20.572 C 564.338 20.402 564.208 20.247 564.026 20.247 L 523.733 20.234 C 523.614 20.267 523.518 20.354 523.473 20.468 L 516.389 45.865 C 516.35 46.086 516.233 46.216 516.038 46.216 C 515.867 46.213 515.724 46.087 515.7 45.917 L 508.187 20.546 C 508.168 20.387 508.046 20.26 507.888 20.234 L 468.999 20.234 C 468.68 20.239 468.425 20.5 468.427 20.818 C 468.427 20.87 468.44 20.974 468.44 20.974 L 498.478 118.12 C 498.556 118.406 498.738 118.588 498.998 118.588 L 531.298 118.601 C 531.492 118.575 531.688 118.354 531.739 118.12 C 531.752 118.12 542.982 81.973 542.982 81.973 C 543.047 81.752 543.138 81.623 543.32 81.623 C 543.515 81.623 543.62 81.778 543.671 81.96 L 554.628 118.276 C 554.693 118.464 554.871 118.59 555.07 118.588 L 587.63 118.588 M 111.114 20.004 C 105.252 20.004 97.038 23.019 92.32 26.516 C 87.6 30.012 80.778 37.98 80.778 48.963 C 80.778 59.946 87.445 68.486 87.445 68.486 C 90.864 72.723 99.468 81.613 99.468 81.613 C 99.663 81.821 99.78 82.094 99.78 82.393 C 99.78 83.056 99.247 83.602 98.585 83.602 L 20 83.602 L 20 118.358 L 114.455 118.358 C 127.297 118.358 134.458 111.365 136.421 109.403 C 138.371 107.453 144.87 100.135 144.87 88.008 C 144.87 75.894 139.346 69.629 136.98 66.783 C 134.874 64.235 126.478 55.397 124.723 53.564 C 124.51 53.382 124.387 53.116 124.385 52.836 C 124.385 52.407 124.632 52.017 125.009 51.887 L 170.501 51.887 L 170.501 118.358 L 205.478 118.358 L 205.478 52.056 L 247.942 52.056 L 257.523 20.643 L 111.114 20.004 Z M 416.181 60.272 L 394.722 60.285 C 394.722 60.285 394.15 60.116 394.15 59.466 L 394.137 48.639 C 394.137 47.989 394.709 47.82 394.709 47.82 L 414.388 47.82 C 416.675 47.82 421.302 48.964 421.302 54.254 C 421.302 59.544 416.182 60.272 416.182 60.272 M 444.491 83.538 C 438.641 83.512 438.226 81.186 438.226 80.848 C 438.226 80.25 438.953 79.873 438.953 79.873 C 441.15 78.82 445.634 75.323 445.634 75.323 C 455.149 67.915 456.293 57.751 456.293 52.305 C 456.293 46.845 455.473 37.188 445.713 28.727 C 435.951 20.265 423.59 20.005 423.59 20.005 L 354.87 20.005 L 354.87 117.8 C 354.87 118.112 355.157 118.36 355.469 118.36 L 393.721 118.36 L 393.721 90.946 C 393.721 90.452 394.462 90.946 394.462 90.946 L 414.388 110.95 C 421.471 118.111 433.182 118.358 433.182 118.358 L 491.997 118.358 L 482.415 83.54 L 444.491 83.54 L 444.491 83.538 Z M 299.077 77.372 L 284.688 77.372 C 284.155 77.372 283.818 76.8 283.818 76.254 C 283.818 76.046 291.473 51.377 291.473 51.377 C 291.746 50.454 291.823 50.427 291.876 50.427 L 291.889 50.427 C 291.941 50.427 292.019 50.454 292.292 51.377 C 292.292 51.377 299.947 76.047 299.947 76.254 C 299.947 76.8 299.597 77.372 299.077 77.372 M 318.443 20.871 C 318.302 20.372 317.856 20.021 317.338 20 L 264.503 20 C 263.983 20.026 263.541 20.377 263.398 20.858 C 263.398 20.858 234.218 117.301 234.218 117.483 C 234.218 117.964 234.608 118.354 235.088 118.354 L 270.014 118.354 C 270.3 118.264 270.507 117.99 270.572 117.691 L 274.641 104.681 C 274.775 104.359 275.085 104.145 275.434 104.135 L 307.642 104.135 C 307.993 104.159 308.303 104.374 308.448 104.694 L 312.608 117.691 C 312.672 117.991 312.88 118.263 313.153 118.367 L 347.519 118.354 C 348 118.354 348.39 117.99 348.39 117.496 C 348.39 117.34 318.443 20.871 318.443 20.871"/>
</svg>