{
    "asset" : {
        "generator" : "Khronos glTF Blender I/O v1.5.17",
        "version" : "2.0"
    },
    "scene" : 0,
    "scenes" : [
        {
            "name" : "Scene",
            "nodes" : [
                0
            ]
        }
    ],
    "nodes" : [
        {
            "mesh" : 0,
            "name" : "Text.007",
            "rotation" : [
                0.5,
                0.5,
                -0.5,
                0.4999999701976776
            ],
            "translation" : [
                0.02608215995132923,
                0.46094152331352234,
                -3.9896645545959473
            ]
        }
    ],
    "materials" : [
        {
            "doubleSided" : true,
            "name" : "Material.002",
            "pbrMetallicRoughness" : {
                "roughnessFactor" : 0.1818181872367859
            }
        }
    ],
    "meshes" : [
        {
            "name" : "Text.007",
            "primitives" : [
                {
                    "attributes" : {
                        "POSITION" : 0,
                        "NORMAL" : 1
                    },
                    "indices" : 2,
                    "material" : 0
                }
            ]
        }
    ],
    "accessors" : [
        {
            "bufferView" : 0,
            "componentType" : 5126,
            "count" : 13266,
            "max" : [
                -3.756162405014038,
                0.08534050732851028,
                0.7440348267555237
            ],
            "min" : [
                -4.220784664154053,
                -0.08568207919597626,
                0.16850262880325317
            ],
            "type" : "VEC3"
        },
        {
            "bufferView" : 1,
            "componentType" : 5126,
            "count" : 13266,
            "type" : "VEC3"
        },
        {
            "bufferView" : 2,
            "componentType" : 5123,
            "count" : 79608,
            "type" : "SCALAR"
        }
    ],
    "bufferViews" : [
        {
            "buffer" : 0,
            "byteLength" : 159192,
            "byteOffset" : 0
        },
        {
            "buffer" : 0,
            "byteLength" : 159192,
            "byteOffset" : 159192
        },
        {
            "buffer" : 0,
            "byteLength" : 159216,
            "byteOffset" : 318384
        }
    ],
    "buffers" : [
        {
            "byteLength" : 477600,
            "uri" : "data:application/octet-stream;base64,"
        }
    ]
}
