{
    "asset" : {
        "generator" : "Khronos glTF Blender I/O v1.5.17",
        "version" : "2.0"
    },
    "scene" : 0,
    "scenes" : [
        {
            "name" : "Scene",
            "nodes" : [
                0
            ]
        }
    ],
    "nodes" : [
        {
            "mesh" : 0,
            "name" : "Text.003",
            "rotation" : [
                0.5,
                0.5,
                -0.5,
                0.4999999701976776
            ],
            "translation" : [
                0.02608215995132923,
                0.4296947419643402,
                -2.0052876472473145
            ]
        }
    ],
    "materials" : [
        {
            "doubleSided" : true,
            "name" : "Material.002",
            "pbrMetallicRoughness" : {
                "roughnessFactor" : 0.1818181872367859
            }
        }
    ],
    "meshes" : [
        {
            "name" : "Text.003",
            "primitives" : [
                {
                    "attributes" : {
                        "POSITION" : 0,
                        "NORMAL" : 1
                    },
                    "indices" : 2,
                    "material" : 0
                }
            ]
        }
    ],
    "accessors" : [
        {
            "bufferView" : 0,
            "componentType" : 5126,
            "count" : 10239,
            "max" : [
                -1.7625842094421387,
                0.09319111704826355,
                0.6887874603271484
            ],
            "min" : [
                -2.2912631034851074,
                -0.09290783107280731,
                0.11520745605230331
            ],
            "type" : "VEC3"
        },
        {
            "bufferView" : 1,
            "componentType" : 5126,
            "count" : 10239,
            "type" : "VEC3"
        },
        {
            "bufferView" : 2,
            "componentType" : 5123,
            "count" : 61434,
            "type" : "SCALAR"
        }
    ],
    "bufferViews" : [
        {
            "buffer" : 0,
            "byteLength" : 122868,
            "byteOffset" : 0
        },
        {
            "buffer" : 0,
            "byteLength" : 122868,
            "byteOffset" : 122868
        },
        {
            "buffer" : 0,
            "byteLength" : 122868,
            "byteOffset" : 245736
        }
    ],
    "buffers" : [
        {
            "byteLength" : 368604,
            "uri" : "data:application/octet-stream;base64,"
        }
    ]
}
