{
    "asset" : {
        "generator" : "Khronos glTF Blender I/O v1.5.17",
        "version" : "2.0"
    },
    "scene" : 0,
    "scenes" : [
        {
            "name" : "Scene",
            "nodes" : [
                0
            ]
        }
    ],
    "nodes" : [
        {
            "mesh" : 0,
            "name" : "Text.005",
            "rotation" : [
                0.5,
                0.5,
                -0.5,
                0.4999999701976776
            ],
            "translation" : [
                0.02608215995132923,
                0.46094152331352234,
                -3.0261189937591553
            ]
        }
    ],
    "materials" : [
        {
            "doubleSided" : true,
            "name" : "Material.002",
            "pbrMetallicRoughness" : {
                "roughnessFactor" : 0.1818181872367859
            }
        }
    ],
    "meshes" : [
        {
            "name" : "Text.005",
            "primitives" : [
                {
                    "attributes" : {
                        "POSITION" : 0,
                        "NORMAL" : 1
                    },
                    "indices" : 2,
                    "material" : 0
                }
            ]
        }
    ],
    "accessors" : [
        {
            "bufferView" : 0,
            "componentType" : 5126,
            "count" : 12855,
            "max" : [
                -2.7957942485809326,
                0.0946819856762886,
                0.757666826248169
            ],
            "min" : [
                -3.2745394706726074,
                -0.09414716809988022,
                0.16831055283546448
            ],
            "type" : "VEC3"
        },
        {
            "bufferView" : 1,
            "componentType" : 5126,
            "count" : 12855,
            "type" : "VEC3"
        },
        {
            "bufferView" : 2,
            "componentType" : 5123,
            "count" : 77142,
            "type" : "SCALAR"
        }
    ],
    "bufferViews" : [
        {
            "buffer" : 0,
            "byteLength" : 154260,
            "byteOffset" : 0
        },
        {
            "buffer" : 0,
            "byteLength" : 154260,
            "byteOffset" : 154260
        },
        {
            "buffer" : 0,
            "byteLength" : 154284,
            "byteOffset" : 308520
        }
    ],
    "buffers" : [
        {
            "byteLength" : 462804,
            "uri" : "data:application/octet-stream;base64,"
        }
    ]
}
