{
    "asset" : {
        "generator" : "Khronos glTF Blender I/O v1.5.17",
        "version" : "2.0"
    },
    "scene" : 0,
    "scenes" : [
        {
            "name" : "Scene",
            "nodes" : [
                0
            ]
        }
    ],
    "nodes" : [
        {
            "mesh" : 0,
            "name" : "Text.004",
            "rotation" : [
                0.5,
                0.5,
                -0.5,
                0.4999999701976776
            ],
            "translation" : [
                0.02608215995132923,
                0.4505259394645691,
                -2.5052876472473145
            ]
        }
    ],
    "materials" : [
        {
            "doubleSided" : true,
            "name" : "Material.002",
            "pbrMetallicRoughness" : {
                "roughnessFactor" : 0.1818181872367859
            }
        }
    ],
    "meshes" : [
        {
            "name" : "Text.004",
            "primitives" : [
                {
                    "attributes" : {
                        "POSITION" : 0,
                        "NORMAL" : 1
                    },
                    "indices" : 2,
                    "material" : 0
                }
            ]
        }
    ],
    "accessors" : [
        {
            "bufferView" : 0,
            "componentType" : 5126,
            "count" : 12227,
            "max" : [
                -2.2803568840026855,
                0.09231424331665039,
                0.7075244784355164
            ],
            "min" : [
                -2.7523789405822754,
                -0.09168258309364319,
                0.13343587517738342
            ],
            "type" : "VEC3"
        },
        {
            "bufferView" : 1,
            "componentType" : 5126,
            "count" : 12227,
            "type" : "VEC3"
        },
        {
            "bufferView" : 2,
            "componentType" : 5123,
            "count" : 73350,
            "type" : "SCALAR"
        }
    ],
    "bufferViews" : [
        {
            "buffer" : 0,
            "byteLength" : 146724,
            "byteOffset" : 0
        },
        {
            "buffer" : 0,
            "byteLength" : 146724,
            "byteOffset" : 146724
        },
        {
            "buffer" : 0,
            "byteLength" : 146700,
            "byteOffset" : 293448
        }
    ],
    "buffers" : [
        {
            "byteLength" : 440148,
            "uri" : "data:application/octet-stream;base64,"
        }
    ]
}
