{
    "asset" : {
        "generator" : "Khronos glTF Blender I/O v1.5.17",
        "version" : "2.0"
    },
    "scene" : 0,
    "scenes" : [
        {
            "name" : "Scene",
            "nodes" : [
                0
            ]
        }
    ],
    "nodes" : [
        {
            "mesh" : 0,
            "name" : "Text.001",
            "rotation" : [
                0.5,
                0.5,
                -0.5,
                0.4999999701976776
            ],
            "translation" : [
                0.02608215995132923,
                0.44011032581329346,
                -0.9896643161773682
            ]
        }
    ],
    "materials" : [
        {
            "doubleSided" : true,
            "name" : "Material.002",
            "pbrMetallicRoughness" : {
                "roughnessFactor" : 0.1818181872367859
            }
        }
    ],
    "meshes" : [
        {
            "name" : "Text.001",
            "primitives" : [
                {
                    "attributes" : {
                        "POSITION" : 0,
                        "NORMAL" : 1
                    },
                    "indices" : 2,
                    "material" : 0
                }
            ]
        }
    ],
    "accessors" : [
        {
            "bufferView" : 0,
            "componentType" : 5126,
            "count" : 4962,
            "max" : [
                -0.7619101405143738,
                0.08947604149580002,
                0.7285902500152588
            ],
            "min" : [
                -1.2273308038711548,
                -0.08881727606058121,
                0.14796611666679382
            ],
            "type" : "VEC3"
        },
        {
            "bufferView" : 1,
            "componentType" : 5126,
            "count" : 4962,
            "type" : "VEC3"
        },
        {
            "bufferView" : 2,
            "componentType" : 5123,
            "count" : 29760,
            "type" : "SCALAR"
        }
    ],
    "bufferViews" : [
        {
            "buffer" : 0,
            "byteLength" : 59544,
            "byteOffset" : 0
        },
        {
            "buffer" : 0,
            "byteLength" : 59544,
            "byteOffset" : 59544
        },
        {
            "buffer" : 0,
            "byteLength" : 59520,
            "byteOffset" : 119088
        }
    ],
    "buffers" : [
        {
            "byteLength" : 178608,
            "uri" : "data:application/octet-stream;base64,"
        }
    ]
}
