{
    "asset" : {
        "generator" : "Khronos glTF Blender I/O v1.5.17",
        "version" : "2.0"
    },
    "scene" : 0,
    "scenes" : [
        {
            "name" : "Scene",
            "nodes" : [
                0
            ]
        }
    ],
    "nodes" : [
        {
            "mesh" : 0,
            "name" : "Text.006",
            "rotation" : [
                0.5,
                0.5,
                -0.5,
                0.4999999701976776
            ],
            "translation" : [
                0.02608215995132923,
                0.4973960816860199,
                -3.510495662689209
            ]
        }
    ],
    "materials" : [
        {
            "doubleSided" : true,
            "name" : "Material.002",
            "pbrMetallicRoughness" : {
                "roughnessFactor" : 0.1818181872367859
            }
        }
    ],
    "meshes" : [
        {
            "name" : "Text.006",
            "primitives" : [
                {
                    "attributes" : {
                        "POSITION" : 0,
                        "NORMAL" : 1
                    },
                    "indices" : 2,
                    "material" : 0
                }
            ]
        }
    ],
    "accessors" : [
        {
            "bufferView" : 0,
            "componentType" : 5126,
            "count" : 8499,
            "max" : [
                -3.2695064544677734,
                0.09069547802209854,
                0.8058649897575378
            ],
            "min" : [
                -3.718662977218628,
                -0.09058209508657455,
                0.23566320538520813
            ],
            "type" : "VEC3"
        },
        {
            "bufferView" : 1,
            "componentType" : 5126,
            "count" : 8499,
            "type" : "VEC3"
        },
        {
            "bufferView" : 2,
            "componentType" : 5123,
            "count" : 50982,
            "type" : "SCALAR"
        }
    ],
    "bufferViews" : [
        {
            "buffer" : 0,
            "byteLength" : 101988,
            "byteOffset" : 0
        },
        {
            "buffer" : 0,
            "byteLength" : 101988,
            "byteOffset" : 101988
        },
        {
            "buffer" : 0,
            "byteLength" : 101964,
            "byteOffset" : 203976
        }
    ],
    "buffers" : [
        {
            "byteLength" : 305940,
            "uri" : "data:application/octet-stream;base64,"
        }
    ]
}
